<svg width="13" height="13" viewBox="0 0 13 13" fill="none" xmlns="http://www.w3.org/2000/svg">
<path d="M11.8926 0.54529C11.8926 0.54529 13.0951 0.0171824 12.994 1.29886C12.9606 1.82697 12.6599 3.6723 12.4261 5.66997L11.6244 11.5858C11.6244 11.5858 11.5576 12.4521 10.9564 12.6034C10.3551 12.7537 9.45323 12.0753 9.28621 11.925C9.1526 11.8112 6.78097 10.1152 5.94589 9.28649C5.71117 9.06103 5.44484 8.60909 5.97929 8.08098L9.48663 4.31313C9.88747 3.8612 10.2883 2.806 8.61815 4.08666L3.9417 7.66662C3.9417 7.66662 3.40635 8.0434 2.40425 7.7042L0.233044 6.95063C0.233044 6.95063 -0.568632 6.38596 0.801801 5.82027C4.14212 4.04908 8.25161 2.24031 11.8926 0.54529Z" fill="#6CAFC9"/>
</svg>
