<svg width="18" height="12" viewBox="0 0 18 12" fill="none" xmlns="http://www.w3.org/2000/svg">
<path fill-rule="evenodd" clip-rule="evenodd" d="M0 0C0 0 0.0447139 2.7337 0.334505 4.03644C0.661584 5.50706 1.25122 7.02881 1.85943 7.97222C3.04304 9.80775 5.15428 11.2354 7.19882 11.6547C8.61835 11.9459 10.3024 12.0845 10.354 11.9459C10.4057 11.8073 10.4479 10.7333 10.4479 9.77V8.01825L10.9508 8.13038C12.2781 8.4263 13.4378 9.76818 14.0467 10.9307L14.5785 11.9459H16.2653H18C18 9.44364 16.0041 7.23578 14.0336 5.94565C14.0336 5.94565 14.2097 5.85365 14.7837 5.29729C16.185 3.9389 17.286 2.00933 17.333 0H15.7917H14.2504C13.5258 1.4675 12.2499 4.52113 10.4479 4.52113C10.4479 4.52113 10.4479 0.13198 10.4479 0H6.99379C6.99379 0.17234 6.99379 7.53844 6.99379 7.53844C4.22939 7.53844 3.53913 1.91902 3.40818 0H0Z" fill="#6CAFC9"/>
</svg>
