<svg width="128" height="89" viewBox="0 0 128 89" fill="none" xmlns="http://www.w3.org/2000/svg"><path _ngcontent-bnt-c86="" d="M40.2205 0.648615L0.114357 86.5904C-0.318055 87.4552 0.546767 88.4281 1.51969 88.1038L127.243 42.3763C127.676 42.2682 128 41.8358 128 41.2953V1.08103C128 0.432411 127.459 0 126.919 0H41.1934C40.761 0 40.4367 0.216204 40.2205 0.648615Z" fill="#EF3B4C"></path><path _ngcontent-bnt-c86="" d="M46.0564 6.91931H44.1105V2.16279H42.3809V13.1893H44.1105V8.43275H46.0564V13.1893H47.786V2.16279H46.0564V6.91931ZM119.458 2.16279H117.729V13.1893H119.458V2.16279ZM50.7048 2.16279L48.9751 13.1893H50.5967L50.921 11.1353H53.083L53.4074 13.1893H55.137L53.2992 2.16279H50.7048ZM51.0291 9.72999L51.8939 4.10864L52.7587 9.72999H51.0291ZM65.7311 6.7031L65.0825 9.18947V2.16279H63.569V13.1893H65.4068L66.8121 8.10844L67.5688 5.40587V13.1893H69.0823V2.16279H67.1364L65.7311 6.7031ZM93.4054 10.4867L93.6216 3.78433H95.135V13.2974H96.8647V2.16279H91.892L91.5676 10.4867C91.5676 11.5677 91.2433 11.6758 90.4866 11.6758V13.2974H90.7028C92.6487 13.2974 93.2973 12.4326 93.4054 10.4867ZM116.756 10.4867V9.08137C116.756 7.35173 115.891 6.3788 114.161 6.3788H113.296V2.16279H111.567V13.1893H114.161C115.891 13.2974 116.756 12.3244 116.756 10.4867ZM113.296 7.89224H114.161C114.702 7.89224 115.026 8.10845 115.026 8.97327V10.5948C115.026 11.3515 114.702 11.6758 114.161 11.6758H113.296V7.89224ZM103.459 10.4867V9.08137C103.459 7.35173 102.594 6.3788 100.864 6.3788H99.9997V2.16279H98.27V13.1893H100.864C102.594 13.2974 103.459 12.3244 103.459 10.4867ZM99.9997 7.89224H100.864C101.405 7.89224 101.729 8.10845 101.729 8.97327V10.5948C101.729 11.3515 101.405 11.6758 100.864 11.6758H99.9997V7.89224ZM106.378 8.54086H108.324V13.2974H110.053V2.16279H108.324V6.91931H106.378V2.16279H104.648V13.1893H106.378V8.54086ZM61.6232 2.16279H59.8935V11.6758H57.9477V2.16279H56.218V13.1893H60.7583V14.7027H62.488V11.6758H61.7313V2.16279H61.6232ZM87.8921 13.2974H89.6218L87.8921 2.16279H85.2977L83.568 13.1893H85.1896L85.5139 11.1353H87.6759L87.8921 13.2974ZM85.7301 9.72999L86.5949 4.10864L87.4597 9.72999H85.7301ZM125.62 3.78433V2.16279H120.864V13.1893H125.62V11.5677H122.593V8.32465H124.971V6.7031H122.593V3.56813H125.62V3.78433ZM73.0821 2.05469C71.3524 2.05469 70.4876 3.02761 70.4876 4.86536V10.5948C70.4876 12.3245 71.4605 13.4055 73.0821 13.4055C74.8117 13.4055 75.6765 12.4326 75.6765 10.5948V4.86536C75.6765 3.02761 74.7036 2.05469 73.0821 2.05469ZM73.9469 10.7029C73.9469 11.4596 73.6226 11.7839 73.0821 11.7839C72.5415 11.7839 72.2172 11.4596 72.2172 10.7029V4.75726C72.2172 4.00054 72.5415 3.67623 73.0821 3.67623C73.6226 3.67623 73.9469 4.00054 73.9469 4.75726V10.7029ZM78.7034 8.54086H80.6493V13.2974H82.3789V2.16279H80.6493V6.91931H78.7034V2.16279H76.9738V13.1893H78.7034V8.54086ZM103.135 17.081V15.4594H98.3781V26.4859H103.135V24.8644H100.108V21.6213H102.486V19.9998H100.108V16.8648H103.135V17.081ZM108.324 26.4859H110.161L107.783 20.3241L110.161 15.3513H108.432L106.162 20.216V15.3513H104.432V26.3778H106.162V23.0266L106.702 22.0537L108.324 26.4859ZM114.594 26.4859V16.9729H116.431V15.3513H111.026V16.9729H112.864V26.4859H114.594ZM122.701 23.7833V22.378C122.701 20.6484 121.836 19.6754 120.107 19.6754H119.242V15.5675H117.512V26.594H120.107C121.836 26.4859 122.701 25.6211 122.701 23.7833ZM119.242 21.1889H120.107C120.647 21.1889 120.972 21.4051 120.972 22.2699V23.8915C120.972 24.6482 120.647 24.9725 120.107 24.9725H119.242V21.1889ZM90.7028 19.6754V18.2701C90.7028 16.5405 89.838 15.5675 88.1084 15.5675H85.5139V26.594H87.2435V22.4861H88.1084C89.838 22.378 90.7028 21.4051 90.7028 19.6754ZM87.3516 17.081H88.2165C88.757 17.081 89.0813 17.2972 89.0813 18.162V19.7836C89.0813 20.5403 88.757 20.8646 88.2165 20.8646H87.3516V17.081ZM78.7034 26.4859H80.4331V16.9729H82.3789V26.4859H84.1085V15.4594H78.5953V26.4859H78.7034ZM123.674 26.4859H125.404V15.4594H123.674V26.4859ZM94.4864 15.3513C92.7568 15.3513 91.892 16.3243 91.892 18.162V23.8915C91.892 25.6211 92.8649 26.7021 94.4864 26.7021C96.2161 26.7021 97.0809 25.7292 97.0809 23.8915V18.162C97.0809 16.3243 96.108 15.3513 94.4864 15.3513ZM95.3512 23.9996C95.3512 24.7563 95.0269 25.0806 94.4864 25.0806C93.9459 25.0806 93.6216 24.7563 93.6216 23.9996V18.0539C93.6216 17.2972 93.9459 16.9729 94.4864 16.9729C95.0269 16.9729 95.3512 17.2972 95.3512 18.0539V23.9996ZM122.053 33.2964L121.404 35.7828V28.7561H119.891V39.7826H121.728L123.134 34.7017L123.89 31.9992V39.7826H125.404V28.7561H123.458L122.053 33.2964ZM96.3242 28.648C94.5945 28.648 93.7297 29.6209 93.7297 31.4586V37.1881C93.7297 38.9177 94.7026 39.9988 96.3242 39.9988C98.0538 39.9988 98.9186 39.0258 98.9186 37.1881V31.4586C99.0267 29.6209 98.0538 28.648 96.3242 28.648ZM97.2971 37.2962C97.2971 38.0529 96.9728 38.3772 96.4323 38.3772C95.8918 38.3772 95.5675 38.0529 95.5675 37.2962V31.3505C95.5675 30.5938 95.8918 30.2695 96.4323 30.2695C96.9728 30.2695 97.2971 30.5938 97.2971 31.3505V37.2962ZM90.0542 28.7561H87.4597V39.7826H89.1894V35.6747H90.0542C91.7838 35.6747 92.6487 34.7017 92.6487 32.9721V31.5667C92.6487 29.729 91.7838 28.7561 90.0542 28.7561ZM90.919 33.0802C90.919 33.8369 90.5947 34.1612 90.0542 34.1612H89.1894V30.3776H90.0542C90.5947 30.3776 90.919 30.5938 90.919 31.4586V33.0802ZM102.81 28.648C101.081 28.648 100.216 29.6209 100.216 31.4586V37.1881C100.216 38.9177 101.081 39.9988 102.81 39.9988C104.54 39.9988 105.405 39.0258 105.405 37.1881V35.6747H103.783V37.2962C103.783 38.0529 103.459 38.3772 102.918 38.3772C102.378 38.3772 102.054 38.0529 102.054 37.2962V31.3505C102.054 30.5938 102.378 30.2695 102.918 30.2695C103.459 30.2695 103.783 30.5938 103.783 31.3505V32.5397H105.405V31.4586C105.405 29.6209 104.54 28.648 102.81 28.648ZM109.188 28.648C107.459 28.648 106.594 29.6209 106.594 31.4586V37.1881C106.594 38.9177 107.459 39.9988 109.188 39.9988C110.918 39.9988 111.783 39.0258 111.783 37.1881V35.6747H110.161V37.2962C110.161 38.0529 109.837 38.3772 109.297 38.3772C108.756 38.3772 108.432 38.0529 108.432 37.2962V31.3505C108.432 30.5938 108.756 30.2695 109.297 30.2695C109.837 30.2695 110.161 30.5938 110.161 31.3505V32.5397H111.783V31.4586C111.783 29.6209 110.81 28.648 109.188 28.648ZM115.134 33.2964L114.485 35.7828V28.7561H112.972V39.7826H114.81L116.215 34.7017L116.972 31.9992V39.7826H118.485V28.7561H116.539L115.134 33.2964Z" fill="white"></path></svg>