<svg width="50" height="42" viewBox="0 0 50 42" fill="none" xmlns="http://www.w3.org/2000/svg">
<path fill-rule="evenodd" clip-rule="evenodd" d="M39.8388 28.1409C39.6818 28.6226 39.3833 29.6043 39.0945 29.8533C39.0674 30.1941 38.1914 31.4942 38.0228 31.733C37.1778 32.929 37.0247 32.9127 36.3309 33.6944C35.8619 34.223 33.9471 35.6313 33.3463 35.8129C33.1214 36.0456 32.1001 36.417 31.7202 36.5211C31.1931 36.7844 29.6349 37.0783 28.9372 37.1436C27.8344 37.2457 26.846 37.2191 25.7588 37.0497C24.3478 36.8313 21.8206 35.9741 20.8477 35.1047C19.7624 34.6128 17.2371 31.9677 16.772 30.7737C16.5646 30.6227 15.9871 29.3859 15.8785 28.9859C15.6537 28.6246 15.427 27.8286 15.3204 27.3735C15.2312 27.0939 15.1052 26.6714 15.1324 26.3755C15.0335 26.253 15.0355 26.1591 15.0045 25.9693C14.9831 25.8326 14.9657 25.706 14.9444 25.5672C14.8242 23.7753 14.7777 22.818 15.0548 21.0628C15.0994 20.7832 15.1421 20.3321 15.299 20.1444C15.2874 19.8239 15.6634 18.6565 15.8339 18.43L16.1537 17.6095C16.5103 16.9768 16.8301 16.3502 17.2061 15.7787C17.7139 15.0093 18.8922 13.6459 19.5802 13.1296C19.9446 12.8561 21.2159 11.7682 21.6346 11.7335C21.933 11.3355 23.2373 10.911 23.7897 10.7151C25.4971 10.115 27.3693 9.97218 29.1736 10.1661C29.7318 10.2253 31.3559 10.4763 31.6563 10.7886C32.0478 10.7886 32.978 11.2764 33.3269 11.4539C34.0595 11.7682 34.9878 12.4295 35.5653 12.9173L36.1739 13.4459C36.7805 13.9643 36.5208 13.8174 37.0983 14.348L37.6119 14.9746C37.6681 15.0481 37.6991 15.1052 37.7534 15.1807C37.8736 15.344 37.9647 15.4501 38.0712 15.6073C38.3561 16.0277 39.0248 17.0482 39.1682 17.5523C39.2961 17.6707 39.8077 18.93 39.8116 19.2014C40.1663 19.579 40.4299 21.5486 40.4996 22.2323C40.5306 23.3895 40.6043 24.2916 40.4454 25.455C40.3 26.5367 40.1043 27.2041 39.8388 28.1409ZM19.7236 1.81442C19.6364 2.1124 19.1461 3.4574 18.9794 3.6166C18.9717 3.82886 18.4775 5.02691 18.3457 5.31673L18.055 6.02494L17.5007 6.02698H16.6673H15.8339H15.0006H14.1672L13.0625 6.02086L13.0606 4.31257L7.72123 4.32686L7.50029 4.34318L6.75995 4.36563C6.62429 4.47789 5.63588 4.67994 5.37036 4.77791C4.06023 5.26366 3.00012 5.98616 2.14156 6.9944C1.49037 7.75773 1.14346 8.22511 0.715144 9.23539C-0.0193806 10.9661 0.193806 11.6152 0 12.1499V33.8352C0.110469 34.1434 0.0697702 35.5741 0.879879 37.164C1.23454 37.86 2.02721 39.0703 2.65708 39.5601C2.81406 39.6826 2.80437 39.6989 2.9536 39.8316C4.68041 41.3603 6.56421 41.6807 8.77747 41.6807H41.2225C42.6489 41.6807 43.5463 41.646 44.8157 41.1684C45.2498 41.0051 45.8177 40.7255 46.2053 40.4663C46.3216 40.3867 46.3836 40.3336 46.5037 40.254L47.3545 39.5724C47.5561 39.405 47.7247 39.2315 47.8875 39.0254C50.1802 36.1252 49.7345 34.572 50 33.8352V13.7051C49.8333 13.2847 49.905 11.4947 48.5697 9.58235C47.5619 8.14143 47.0929 7.8761 45.7867 6.97604C45.5677 6.88623 45.1083 6.69438 44.9436 6.52906C44.5696 6.53314 43.7459 6.1025 43.1897 6.12087L42.4997 6.03311L41.6663 6.02698H40.833H39.9996H39.1662H38.2786L37.7786 6.02903C37.5577 5.90249 36.984 4.2493 36.8503 3.90029C36.7068 3.52476 36.5692 3.19208 36.4278 2.8247C36.2766 2.43692 36.1041 2.1022 35.9878 1.75319C35.6022 1.26336 35.3521 0.624537 34.4568 0.218384C34.23 0.114294 33.918 0.0979666 33.7087 0H21.8477C21.6462 0.104089 21.3535 0.114294 21.0861 0.265326C20.1674 0.781691 20.0182 1.45521 19.7236 1.81442Z" fill="#e1e1e1"/>
<path fill-rule="evenodd" clip-rule="evenodd" d="M24.1984 15.7094C24.0976 15.8727 23.7972 15.987 23.6169 16.0972C22.1421 16.9891 21.4289 17.8279 20.4656 19.3239C19.985 20.4444 19.64 21.0037 19.4307 22.3895C19.3299 23.0467 19.2989 23.7222 19.3396 24.3978C19.3706 24.9305 19.6013 25.7897 19.5896 26.1632C19.7621 26.3653 19.8455 26.8796 19.9501 27.147C20.3532 28.1491 20.956 29.1553 21.5781 29.8227C21.7564 29.9064 21.9114 30.1411 22.051 30.3105C22.2642 30.5656 22.2584 30.3942 22.5568 30.8003C22.6712 30.8268 22.551 30.7819 22.6653 30.8432C22.8088 30.9187 23.303 31.3412 24.2216 31.8167C26.179 32.5882 27.8148 32.9617 30.0261 32.2616C31.1444 31.9065 30.9602 31.8514 31.6638 31.5677C32.1754 31.2983 32.7626 30.8289 33.1968 30.4533C34.2065 29.5819 34.9216 28.1838 35.067 28.0246C35.2007 27.5837 35.4779 27.0449 35.6445 26.5408C36.5225 23.8937 35.9682 20.6506 34.3829 18.4912C33.253 16.9523 33.0805 17.187 32.4448 16.4992L31.5339 15.94C30.654 15.4277 29.2625 15.0318 28.2218 14.9828L27.1675 14.9685C26.6209 15.0808 26.1519 15.0848 25.5841 15.244C25.2216 15.3461 24.4716 15.7012 24.1984 15.7094Z" fill="#e1e1e1"/>
</svg>
