<svg width="50" height="44" viewBox="0 0 50 44" fill="none" xmlns="http://www.w3.org/2000/svg">
<path fill-rule="evenodd" clip-rule="evenodd" d="M6.25793 9.29216V34.4501C6.25793 36.0833 7.66754 37.4843 9.60801 37.4843H40.3289C42.2644 37.4843 43.6789 36.1091 43.6789 34.5764V9.29216C43.6789 8.55294 43.2356 7.57525 42.7476 7.12597C42.139 6.56587 41.3252 6.25776 40.4551 6.25776H9.48173C8.45148 6.25776 7.8071 6.61925 7.23154 7.10511C6.71018 7.54572 6.25793 8.53478 6.25793 9.29216ZM0 37.9268V5.81553C0 4.956 0.311352 4.11651 0.611051 3.51874C1.58684 1.57177 3.6048 0.000110509 6.0051 0.000110509H43.9318C46.3586 0.000110509 48.7421 1.76118 49.5664 4.03684C49.8786 4.89909 50 5.70145 50 6.88995V36.9155C50 38.6172 49.6632 39.9856 48.7096 41.2508C47.7333 42.5464 45.9519 43.7422 43.8686 43.7422H6.06824C3.76007 43.7422 1.65485 42.303 0.631917 40.2658C0.342785 39.6903 0 38.7852 0 37.9268Z" fill="black"/>
<path fill-rule="evenodd" clip-rule="evenodd" d="M18.7109 27.6866V16.2454C18.7109 15.1008 19.3548 14.1594 20.4807 14.1594C21.3063 14.1594 21.9589 14.2754 22.6309 14.7274L29.5459 19.2533C30.2797 19.7342 31.7324 20.4829 31.7324 21.6815C31.7324 22.5735 31.6476 22.9377 30.9274 23.6577C30.4816 24.1035 24.4906 27.9421 23.9828 28.2808C22.8065 29.065 21.9353 29.8357 20.6072 29.8357C19.4992 29.8357 18.7109 28.8737 18.7109 27.6866Z" fill="black"/>
</svg>
