<svg width="247" height="170" viewBox="0 0 247 170" fill="none" xmlns="http://www.w3.org/2000/svg">
<g clip-path="url(#clip0_3_56)">
<path d="M77.5684 1.2298L0.208689 166.915C0.00354479 167.297 -0.0774626 167.733 -0.023071 168.163C0.0313206 168.592 0.218406 168.994 0.512184 169.313C0.805961 169.632 1.19183 169.851 1.61616 169.941C2.04049 170.03 2.48218 169.985 2.87986 169.812L245.539 81.6234C245.971 81.4783 246.344 81.1961 246.6 80.8197C246.856 80.4433 246.982 79.9935 246.958 79.539V2.12607C246.958 1.57326 246.738 1.0431 246.347 0.652206C245.956 0.261313 245.425 0.0417138 244.871 0.0417138H79.5091C79.1006 0.0344324 78.699 0.147084 78.354 0.365693C78.009 0.584301 77.7358 0.899242 77.5684 1.27148" fill="#008BBF"/>
<path d="M88.8582 13.4232H85.0393V4.33542H81.6795V25.6167H85.0393V16.4664H88.8582V25.6167H92.2807V4.33542H88.8582V13.4232ZM230.493 4.33542H227.133V25.6167H230.493V4.33542ZM97.8317 4.33542L94.4093 25.6167H97.4978L98.0821 21.7398H102.256L102.84 25.6167H106.221L102.757 4.33542H97.8317ZM98.4995 18.9259L100.127 8.12894L101.734 18.9259H98.4995ZM126.881 13.1522L125.649 17.8629V4.33542H122.665V25.6167H126.109L128.926 15.8202L130.303 10.5885V25.6375H133.329V4.33542H129.614L126.881 13.1522ZM180.2 20.3016L180.555 7.39942H183.497V25.7001H186.899V4.33542H177.403L176.861 20.4475C176.861 22.5318 176.318 22.6569 174.774 22.6569V25.7001H175.275C178.635 25.7001 180.054 24.1785 180.179 20.2807M225.192 20.4058V17.5502C225.192 14.1527 223.544 12.2768 220.184 12.2768H218.598V4.33542H215.238V25.6167H220.184C223.544 25.6167 225.192 23.7408 225.192 20.3433M218.598 15.3408H220.184C221.248 15.3408 221.833 15.8202 221.833 17.4252V20.6351C221.833 22.1567 221.248 22.7194 220.184 22.7194H218.598V15.3408ZM199.628 20.3433V17.5502C199.628 14.1527 197.98 12.2768 194.599 12.2768H193.013V4.33542H189.674V25.6167H194.599C197.98 25.6167 199.628 23.7408 199.628 20.3433ZM193.013 15.3408H194.599C195.684 15.3408 196.269 15.8202 196.269 17.4252V20.6351C196.269 22.1567 195.684 22.7194 194.599 22.7194H193.013V15.3408ZM205.346 16.4664H209.186V25.6167H212.588V4.33542H209.186V13.4857H205.346V4.33542H202.007V25.6167H205.346V16.4664ZM118.888 4.33542H115.466V22.6152H111.647V4.33542H108.287V25.6167H117.072V28.4723H120.328V22.6152H118.867L118.888 4.33542ZM169.661 25.6792H173.042L169.619 4.33542H164.694L161.272 25.6792H164.361L164.945 21.8023H169.119L169.661 25.6792ZM165.487 18.9051L167.094 8.10809L168.722 18.9051H165.487ZM242.451 7.37857V4.33542H233.289V25.6167H242.451V22.5527H236.649V16.2996H241.261V13.2565H236.649V7.31604L242.451 7.37857ZM140.904 4.02276C140.197 3.96309 139.485 4.06305 138.821 4.31524C138.158 4.56742 137.559 4.9654 137.07 5.47972C136.581 5.99404 136.215 6.61156 135.997 7.28659C135.779 7.96163 135.716 8.67691 135.812 9.37955V20.4892C135.812 21.157 135.944 21.8184 136.2 22.4354C136.456 23.0525 136.831 23.6131 137.304 24.0854C137.777 24.5577 138.338 24.9323 138.956 25.1879C139.574 25.4434 140.236 25.575 140.904 25.575C141.573 25.575 142.235 25.4434 142.853 25.1879C143.471 24.9323 144.032 24.5577 144.505 24.0854C144.978 23.6131 145.353 23.0525 145.609 22.4354C145.865 21.8184 145.996 21.157 145.996 20.4892V9.37955C146.093 8.67691 146.03 7.96163 145.812 7.28659C145.594 6.61156 145.227 5.99404 144.738 5.47972C144.249 4.9654 143.651 4.56742 142.987 4.31524C142.324 4.06305 141.612 3.96309 140.904 4.02276ZM142.636 20.6976C142.636 22.2192 141.969 22.782 140.904 22.782C139.84 22.782 139.151 22.1983 139.151 20.6976V9.17112C139.151 7.64954 139.84 7.08676 140.904 7.08676C141.969 7.08676 142.636 7.67038 142.636 9.17112V20.6976ZM151.881 16.5289H155.804V25.6792H159.206V4.33542H155.804V13.4857H151.986V4.33542H148.626V25.6167H151.986L151.881 16.5289ZM198.981 32.9953V29.8896H189.82V51.2334H198.981V48.1069H193.18V41.8538H197.792V38.8732H193.18V32.9328L198.981 32.9953ZM209.061 51.2959H212.504L207.83 39.4568L212.504 29.9521H209.144L204.741 39.2484V29.8896H201.402V51.2334H204.741V44.6677L205.785 42.7084L209.061 51.2959ZM221.102 51.2959V32.9328H224.671V29.8896H214.236V32.9328H217.742V51.2334L221.102 51.2959ZM236.691 46.0225V43.1669C236.691 39.7486 235.042 37.8935 231.682 37.8935H230.096V29.8896H226.758V51.2334H231.703C235.063 51.2334 236.712 49.3783 236.712 45.96M230.117 40.9575H231.703C232.789 40.9575 233.352 41.4369 233.352 43.0419V46.2518C233.352 47.7734 232.789 48.3362 231.703 48.3362H230.117V40.9575ZM175.087 37.9352V35.163C175.087 31.7447 173.438 29.8896 170.079 29.8896H165.133V51.2334H168.493V43.2086H170.079C173.438 43.2086 175.087 41.3536 175.087 37.9352ZM168.493 32.9328H170.079C171.143 32.9328 171.727 33.4122 171.727 35.0171V38.227C171.727 39.7486 171.143 40.3114 170.079 40.3114H168.493V32.9328ZM151.798 51.2334H155.158V32.9328H158.977V51.2334H162.378V29.8896H151.839L151.798 51.2334ZM238.569 51.2334H241.929V29.8896H238.569V51.2334ZM182.224 29.6395C181.517 29.5798 180.805 29.6798 180.141 29.932C179.477 30.1842 178.879 30.5821 178.39 31.0964C177.901 31.6108 177.534 32.2283 177.317 32.9033C177.099 33.5783 177.036 34.2936 177.132 34.9963V46.0225C177.088 46.7192 177.186 47.4176 177.423 48.0746C177.659 48.7316 178.027 49.3332 178.506 49.8424C178.984 50.3515 179.561 50.7573 180.203 51.0347C180.844 51.3122 181.536 51.4553 182.234 51.4553C182.933 51.4553 183.625 51.3122 184.266 51.0347C184.908 50.7573 185.485 50.3515 185.963 49.8424C186.442 49.3332 186.81 48.7316 187.046 48.0746C187.283 47.4176 187.381 46.7192 187.337 46.0225V34.9963C187.43 34.2925 187.364 33.5769 187.143 32.902C186.923 32.2271 186.554 31.61 186.063 31.0962C185.573 30.5824 184.974 30.1849 184.309 29.9328C183.645 29.6807 182.932 29.5805 182.224 29.6395ZM183.977 46.3143C183.977 47.8359 183.309 48.3987 182.224 48.3987C181.139 48.3987 180.492 47.8151 180.492 46.3143V34.7878C180.492 33.2663 181.16 32.7035 182.224 32.7035C183.288 32.7035 183.977 33.2871 183.977 34.7878V46.3143ZM235.564 64.3023L234.333 69.013V55.4855H231.349V76.8501H234.792L237.609 67.0537L238.986 61.8011V76.8501H241.992V55.4855H238.298L235.564 64.3023ZM185.918 55.2562C185.212 55.1999 184.502 55.3023 183.841 55.5559C183.18 55.8096 182.585 56.208 182.098 56.7219C181.612 57.2358 181.247 57.8522 181.03 58.5255C180.814 59.1989 180.751 59.9122 180.847 60.613V71.7226C180.847 73.0715 181.383 74.3651 182.338 75.3188C183.293 76.2726 184.588 76.8084 185.939 76.8084C187.289 76.8084 188.584 76.2726 189.539 75.3188C190.494 74.3651 191.031 73.0715 191.031 71.7226V60.613C191.127 59.9104 191.064 59.1951 190.846 58.52C190.628 57.845 190.262 57.2275 189.773 56.7132C189.284 56.1988 188.685 55.8009 188.022 55.5487C187.358 55.2965 186.646 55.1965 185.939 55.2562M187.671 71.9311C187.671 73.4526 187.003 74.0154 185.939 74.0154C184.874 74.0154 184.186 73.4318 184.186 71.9311V60.4046C184.186 58.883 184.874 58.3202 185.939 58.3202C187.003 58.3202 187.671 58.9038 187.671 60.4046V71.9311ZM173.772 55.4855H168.826V76.8501H172.186V68.8254H173.772C177.132 68.8254 178.781 66.9703 178.781 63.552V60.7798C178.781 57.3614 177.132 55.4855 173.772 55.4855ZM175.421 63.8229C175.421 65.3445 174.857 65.9073 173.772 65.9073H172.186V58.5286H173.772C174.857 58.5286 175.421 59.008 175.421 60.613V63.8229ZM198.376 55.3187C195.079 55.3187 193.368 57.2572 193.368 60.6755V71.7851C193.368 75.2035 195.079 77.1419 198.376 77.1419C201.674 77.1419 203.385 75.2035 203.385 71.7851V68.9504H200.192V71.9936C200.192 73.5152 199.524 74.0779 198.46 74.0779C197.395 74.0779 196.728 73.5152 196.728 71.9936V60.4046C196.728 58.883 197.395 58.3202 198.46 58.3202C199.524 58.3202 200.192 58.9038 200.192 60.4046V62.6974H203.385V60.613C203.385 57.1947 201.674 55.2562 198.376 55.2562M210.647 55.2562C207.35 55.2562 205.639 57.1947 205.639 60.613V71.7226C205.639 75.141 207.35 77.0794 210.647 77.0794C213.944 77.0794 215.655 75.141 215.655 71.7226V68.9504H212.483V71.9936C212.483 73.5152 211.816 74.0779 210.751 74.0779C209.687 74.0779 208.998 73.5152 208.998 71.9936V60.4046C208.998 58.883 209.687 58.3202 210.751 58.3202C211.816 58.3202 212.483 58.9038 212.483 60.4046V62.6974H215.655V60.613C215.655 57.1947 213.944 55.2562 210.647 55.2562ZM222.271 64.3023L221.04 69.013V55.4855H218.055V76.8501H221.499L224.316 67.0537L225.693 61.8011V76.8501H228.719V55.4855H225.025L222.271 64.3023Z" fill="white"/>
</g>
<defs>
<clipPath id="clip0_3_56">
<rect width="247" height="170" fill="white"/>
</clipPath>
</defs>
</svg>
