<svg width="0" height="0" class="hidden">
  <symbol xmlns="http://www.w3.org/2000/svg" viewBox="0 0 13 13" id="telegram">
    <path d="M11.8926 0.54529C11.8926 0.54529 13.0951 0.0171824 12.994 1.29886C12.9606 1.82697 12.6599 3.6723 12.4261 5.66997L11.6244 11.5858C11.6244 11.5858 11.5576 12.4521 10.9564 12.6034C10.3551 12.7537 9.45323 12.0753 9.28621 11.925C9.1526 11.8112 6.78097 10.1152 5.94589 9.28649C5.71117 9.06103 5.44484 8.60909 5.97929 8.08098L9.48663 4.31313C9.88747 3.8612 10.2883 2.806 8.61815 4.08666L3.9417 7.66662C3.9417 7.66662 3.40635 8.0434 2.40425 7.7042L0.233044 6.95063C0.233044 6.95063 -0.568632 6.38596 0.801801 5.82027C4.14212 4.04908 8.25161 2.24031 11.8926 0.54529Z"></path>
  </symbol>
  <symbol xmlns="http://www.w3.org/2000/svg" viewBox="0 0 18 12" id="vk">
    <path fill-rule="evenodd" clip-rule="evenodd" d="M0 0C0 0 0.0447139 2.7337 0.334505 4.03644C0.661584 5.50706 1.25122 7.02881 1.85943 7.97222C3.04304 9.80775 5.15428 11.2354 7.19882 11.6547C8.61835 11.9459 10.3024 12.0845 10.354 11.9459C10.4057 11.8073 10.4479 10.7333 10.4479 9.77V8.01825L10.9508 8.13038C12.2781 8.4263 13.4378 9.76818 14.0467 10.9307L14.5785 11.9459H16.2653H18C18 9.44364 16.0041 7.23578 14.0336 5.94565C14.0336 5.94565 14.2097 5.85365 14.7837 5.29729C16.185 3.9389 17.286 2.00933 17.333 0H15.7917H14.2504C13.5258 1.4675 12.2499 4.52113 10.4479 4.52113C10.4479 4.52113 10.4479 0.13198 10.4479 0H6.99379C6.99379 0.17234 6.99379 7.53844 6.99379 7.53844C4.22939 7.53844 3.53913 1.91902 3.40818 0H0Z"></path>
  </symbol>
</svg>